<svg width="600" height="600" viewBox="0 0 600 600" fill="none" xmlns="http://www.w3.org/2000/svg">
<circle cx="48" cy="54" r="18" fill="#B52626"/>
<rect x="49" y="54" width="496" height="496" stroke="black" stroke-opacity="0.87" stroke-width="4"/>
<rect x="172" y="177" width="250" height="250" fill="#B52626"/>
<path d="M18.1758 22.084C18.1758 25.8926 17.5254 28.7227 16.2246 30.5742C14.9238 32.4258 12.8906 33.3516 10.125 33.3516C7.39453 33.3516 5.37305 32.4492 4.06055 30.6445C2.74805 28.8281 2.06836 26.1211 2.02148 22.5234V18.1816C2.02148 14.4199 2.67188 11.625 3.97266 9.79688C5.27344 7.96875 7.3125 7.05469 10.0898 7.05469C12.8438 7.05469 14.8711 7.93945 16.1719 9.70898C17.4727 11.4668 18.1406 14.1855 18.1758 17.8652V22.084ZM14.9238 17.6367C14.9238 14.8828 14.5371 12.8789 13.7637 11.625C12.9902 10.3594 11.7656 9.72656 10.0898 9.72656C8.42578 9.72656 7.21289 10.3535 6.45117 11.6074C5.68945 12.8613 5.29688 14.7891 5.27344 17.3906V22.5938C5.27344 25.3594 5.67188 27.4043 6.46875 28.7285C7.27734 30.041 8.49609 30.6973 10.125 30.6973C11.7305 30.6973 12.9199 30.0762 13.6934 28.834C14.4785 27.5918 14.8887 25.6348 14.9238 22.9629V17.6367ZM22.5703 38.0977L20.7246 36.832C21.8262 35.2969 22.4004 33.7148 22.4473 32.0859V29.1504H25.6289V31.6992C25.6289 32.8828 25.3359 34.0664 24.75 35.25C24.1758 36.4336 23.4492 37.3828 22.5703 38.0977ZM45.457 22.084C45.457 25.8926 44.8066 28.7227 43.5059 30.5742C42.2051 32.4258 40.1719 33.3516 37.4062 33.3516C34.6758 33.3516 32.6543 32.4492 31.3418 30.6445C30.0293 28.8281 29.3496 26.1211 29.3027 22.5234V18.1816C29.3027 14.4199 29.9531 11.625 31.2539 9.79688C32.5547 7.96875 34.5938 7.05469 37.3711 7.05469C40.125 7.05469 42.1523 7.93945 43.4531 9.70898C44.7539 11.4668 45.4219 14.1855 45.457 17.8652V22.084ZM42.2051 17.6367C42.2051 14.8828 41.8184 12.8789 41.0449 11.625C40.2715 10.3594 39.0469 9.72656 37.3711 9.72656C35.707 9.72656 34.4941 10.3535 33.7324 11.6074C32.9707 12.8613 32.5781 14.7891 32.5547 17.3906V22.5938C32.5547 25.3594 32.9531 27.4043 33.75 28.7285C34.5586 30.041 35.7773 30.6973 37.4062 30.6973C39.0117 30.6973 40.2012 30.0762 40.9746 28.834C41.7598 27.5918 42.1699 25.6348 42.2051 22.9629V17.6367Z" fill="black" fill-opacity="0.87"/>
<path d="M111.842 155.924L116.061 148.98H119.857L113.635 158.385L120.051 168H116.289L111.895 160.881L107.5 168H103.721L110.137 158.385L103.914 148.98H107.676L111.842 155.924Z" fill="black" fill-opacity="0.87"/>
<path d="M271.301 455.518L274.957 440.98H278.209L272.672 460H270.035L265.412 445.586L260.912 460H258.275L252.756 440.98H255.99L259.734 455.219L264.164 440.98H266.783L271.301 455.518ZM285.064 460H281.812V440.98H285.064V460ZM281.549 435.936C281.549 435.408 281.707 434.963 282.023 434.6C282.352 434.236 282.832 434.055 283.465 434.055C284.098 434.055 284.578 434.236 284.906 434.6C285.234 434.963 285.398 435.408 285.398 435.936C285.398 436.463 285.234 436.902 284.906 437.254C284.578 437.605 284.098 437.781 283.465 437.781C282.832 437.781 282.352 437.605 282.023 437.254C281.707 436.902 281.549 436.463 281.549 435.936ZM289.494 450.332C289.494 447.414 290.186 445.07 291.568 443.301C292.951 441.52 294.762 440.629 297 440.629C299.227 440.629 300.99 441.391 302.291 442.914V433H305.543V460H302.555L302.396 457.961C301.096 459.555 299.285 460.352 296.965 460.352C294.762 460.352 292.963 459.449 291.568 457.645C290.186 455.84 289.494 453.484 289.494 450.578V450.332ZM292.746 450.701C292.746 452.857 293.191 454.545 294.082 455.764C294.973 456.982 296.203 457.592 297.773 457.592C299.836 457.592 301.342 456.666 302.291 454.814V446.078C301.318 444.285 299.824 443.389 297.809 443.389C296.215 443.389 294.973 444.004 294.082 445.234C293.191 446.465 292.746 448.287 292.746 450.701ZM315.018 436.375V440.98H318.568V443.494H315.018V455.289C315.018 456.051 315.176 456.625 315.492 457.012C315.809 457.387 316.348 457.574 317.109 457.574C317.484 457.574 318 457.504 318.656 457.363V460C317.801 460.234 316.969 460.352 316.16 460.352C314.707 460.352 313.611 459.912 312.873 459.033C312.135 458.154 311.766 456.906 311.766 455.289V443.494H308.303V440.98H311.766V436.375H315.018ZM325.635 443.283C327.076 441.514 328.951 440.629 331.26 440.629C335.279 440.629 337.307 442.896 337.342 447.432V460H334.09V447.414C334.078 446.043 333.762 445.029 333.141 444.373C332.531 443.717 331.576 443.389 330.275 443.389C329.221 443.389 328.295 443.67 327.498 444.232C326.701 444.795 326.08 445.533 325.635 446.447V460H322.383V433H325.635V443.283Z" fill="black" fill-opacity="0.87"/>
<path d="M438.283 347.287C436.514 345.846 435.629 343.971 435.629 341.662C435.629 337.643 437.896 335.615 442.432 335.58L455 335.58L455 338.832L442.414 338.832C441.043 338.844 440.029 339.16 439.373 339.781C438.717 340.391 438.389 341.346 438.389 342.646C438.389 343.701 438.67 344.627 439.232 345.424C439.795 346.221 440.533 346.842 441.447 347.287L455 347.287L455 350.539L428 350.539L428 347.287L438.283 347.287ZM455.352 322.818C455.352 325.396 454.508 327.494 452.82 329.111C451.121 330.729 448.854 331.537 446.018 331.537L445.42 331.537C443.533 331.537 441.852 331.18 440.375 330.465C438.887 329.738 437.727 328.73 436.895 327.441C436.051 326.141 435.629 324.734 435.629 323.223C435.629 320.75 436.443 318.828 438.072 317.457C439.701 316.086 442.033 315.4 445.068 315.4L446.422 315.4L446.422 328.285C448.297 328.238 449.814 327.693 450.975 326.65C452.123 325.596 452.697 324.26 452.697 322.643C452.697 321.494 452.463 320.521 451.994 319.725C451.525 318.928 450.904 318.23 450.131 317.633L451.678 315.646C454.127 317.24 455.352 319.631 455.352 322.818ZM438.301 323.223C438.301 324.535 438.781 325.637 439.742 326.527C440.691 327.418 442.027 327.969 443.75 328.18L443.75 318.652L443.504 318.652C441.852 318.746 440.574 319.191 439.672 319.988C438.758 320.785 438.301 321.863 438.301 323.223ZM455 308.088L455 311.34L435.98 311.34L435.98 308.088L455 308.088ZM430.936 311.604C430.408 311.604 429.963 311.445 429.6 311.129C429.236 310.801 429.055 310.32 429.055 309.687C429.055 309.055 429.236 308.574 429.6 308.246C429.963 307.918 430.408 307.754 430.936 307.754C431.463 307.754 431.902 307.918 432.254 308.246C432.605 308.574 432.781 309.055 432.781 309.687C432.781 310.32 432.605 310.801 432.254 311.129C431.902 311.445 431.463 311.604 430.936 311.604ZM445.332 303.641C442.367 303.641 440.012 302.955 438.266 301.584C436.508 300.213 435.629 298.396 435.629 296.135C435.629 293.814 436.449 292.004 438.09 290.703L435.98 290.545L435.98 287.574L454.543 287.574C457.004 287.574 458.943 288.307 460.361 289.771C461.779 291.225 462.488 293.182 462.488 295.643C462.488 297.014 462.195 298.355 461.609 299.668C461.023 300.98 460.221 301.982 459.201 302.674L457.25 300.986C458.973 299.592 459.834 297.887 459.834 295.871C459.834 294.289 459.389 293.059 458.498 292.18C457.607 291.289 456.354 290.844 454.736 290.844L453.102 290.844C454.602 292.145 455.352 293.92 455.352 296.17C455.352 298.396 454.455 300.201 452.662 301.584C450.869 302.955 448.426 303.641 445.332 303.641ZM445.701 300.371C447.846 300.371 449.533 299.932 450.764 299.053C451.982 298.174 452.592 296.943 452.592 295.361C452.592 293.311 451.66 291.805 449.797 290.844L441.113 290.844C439.297 291.84 438.389 293.334 438.389 295.326C438.389 296.908 439.004 298.145 440.234 299.035C441.465 299.926 443.287 300.371 445.701 300.371ZM438.283 279.4C436.514 277.959 435.629 276.084 435.629 273.775C435.629 269.756 437.896 267.729 442.432 267.693L455 267.693L455 270.945L442.414 270.945C441.043 270.957 440.029 271.273 439.373 271.895C438.717 272.504 438.389 273.459 438.389 274.76C438.389 275.814 438.67 276.74 439.232 277.537C439.795 278.334 440.533 278.955 441.447 279.4L455 279.4L455 282.652L428 282.652L428 279.4L438.283 279.4ZM431.375 258.412L435.98 258.412L435.98 254.861L438.494 254.861L438.494 258.412L450.289 258.412C451.051 258.412 451.625 258.254 452.012 257.937C452.387 257.621 452.574 257.082 452.574 256.32C452.574 255.945 452.504 255.43 452.363 254.773L455 254.773C455.234 255.629 455.352 256.461 455.352 257.27C455.352 258.723 454.912 259.818 454.033 260.557C453.154 261.295 451.906 261.664 450.289 261.664L438.494 261.664L438.494 265.127L435.98 265.127L435.98 261.664L431.375 261.664L431.375 258.412Z" fill="black" fill-opacity="0.87"/>
<path d="M154.684 116.236L159.113 101.98H162.594L154.947 123.936C153.764 127.1 151.883 128.682 149.305 128.682L148.689 128.629L147.477 128.4V125.764L148.355 125.834C149.457 125.834 150.312 125.611 150.922 125.166C151.543 124.721 152.053 123.906 152.451 122.723L153.172 120.789L146.387 101.98H149.938L154.684 116.236Z" fill="black" fill-opacity="0.87"/>
<line x1="162.646" y1="186.324" x2="180.324" y2="168.646" stroke="black" stroke-opacity="0.87"/>
<line x1="172" y1="177.5" x2="51" y2="177.5" stroke="black" stroke-opacity="0.87"/>
<line x1="41.6464" y1="186.324" x2="59.3241" y2="168.646" stroke="black" stroke-opacity="0.87"/>
<line x1="181.031" y1="47.3536" x2="163.354" y2="65.0312" stroke="black" stroke-opacity="0.87"/>
<line x1="172.5" y1="55.6777" x2="172.5" y2="176.678" stroke="black" stroke-opacity="0.87"/>
<path d="M49.5 568L38.6747 538L60.3253 538L49.5 568Z" fill="black" fill-opacity="0.87"/>
<path d="M564 53.5L534 64.3253L534 42.6747L564 53.5Z" fill="black" fill-opacity="0.87"/>
</svg>
